<svg xmlns="http://www.w3.org/2000/svg" viewBox="0 0 171 193"><defs><style>.cls-1{fill:#af9f2f;}.cls-2{fill:#fff;}</style></defs><g id="Layer_2" data-name="Layer 2"><path class="cls-1" d="M396,220H225V158a12,12,0,0,1,12-12H384a12,12,0,0,1,12,12Z" transform="translate(-225 -146)"/></g><g id="Layer_3" data-name="Layer 3"><path class="cls-1" d="M384,281H237a12,12,0,0,1-12-12V223H396v46A12,12,0,0,1,384,281Z" transform="translate(-225 -146)"/></g><g id="Layer_4" data-name="Layer 4"><path class="cls-1" d="M367,305H254a12,12,0,0,1-12-12v-9H379v9A12,12,0,0,1,367,305Z" transform="translate(-225 -146)"/></g><g id="Layer_5" data-name="Layer 5"><path class="cls-1" d="M80,162H95a0,0,0,0,1,0,0v28a3,3,0,0,1-3,3H83a3,3,0,0,1-3-3V162A0,0,0,0,1,80,162Z"/><path class="cls-1" d="M120,162h15a0,0,0,0,1,0,0v28a3,3,0,0,1-3,3h-9a3,3,0,0,1-3-3V162A0,0,0,0,1,120,162Z"/><path class="cls-1" d="M40,162H55a0,0,0,0,1,0,0v28a3,3,0,0,1-3,3H43a3,3,0,0,1-3-3V162A0,0,0,0,1,40,162Z"/></g><g id="serial"><rect class="cls-2" x="24" y="25" width="16" height="32"/><rect class="cls-2" x="45" y="25" width="16" height="32"/><rect class="cls-2" x="67" y="25" width="16" height="32"/><rect class="cls-2" x="89" y="25" width="16" height="32"/><rect class="cls-2" x="111" y="25" width="16" height="32"/><rect class="cls-2" x="134" y="25" width="16" height="32"/></g><g id="status"><path id="status-2" data-name="status" class="cls-2" d="M307.76,271.35c.9-5.51,1.8-11,2.73-16.74h-7.14l13.15-21.34.32.12c-.9,5.54-1.8,11.09-2.75,16.89h7.14c-4.52,7.31-8.81,14.26-13.1,21.22Z" transform="translate(-225 -146)"/></g></svg>