<svg id="Layer_2" data-name="Layer 2" xmlns="http://www.w3.org/2000/svg" viewBox="0 0 150 113"><defs><style>.cls-1{fill:#1781bc;}.cls-2{fill:#fff;}</style></defs><path class="cls-1" d="M238.48,340H230V278.5a3.5,3.5,0,0,0-7,0V340H147V278.5a3.5,3.5,0,0,0-7,0V340h-8.48A21.53,21.53,0,0,0,110,361.52v5A21.53,21.53,0,0,0,131.52,388h107A21.53,21.53,0,0,0,260,366.48v-5A21.53,21.53,0,0,0,238.48,340Z" transform="translate(-110 -275)"/><g id="serial"><rect id="serial-2" data-name="serial" class="cls-2" x="29" y="79" width="91" height="22" rx="7.31"/></g><g id="status"><path id="status-2" data-name="status" class="cls-2" d="M118.55,365a6.7,6.7,0,0,1,6.81-6.73,6.78,6.78,0,0,1,6.56,6.75,6.69,6.69,0,1,1-13.37,0Z" transform="translate(-110 -275)"/></g></svg>