<svg xmlns="http://www.w3.org/2000/svg" viewBox="0 0 476.11 476.11"><defs><style>.cls-1{fill:#e50000;}.cls-2{opacity:0.59;}.cls-3{stroke:#000;stroke-miterlimit:10;stroke-width:7px;}</style></defs><g id="Capa_1" data-name="Capa 1"><path class="cls-1" d="M362.3,139.24a124.25,124.25,0,0,0-248.49,0c0,31,21.25,105.33,52.88,185.05,14.55,36.68,29.79,70.49,42.9,95.21,17.78,33.51,26.19,40.14,28.35,41.39,2.15-1.38,10.42-8.41,28.12-42.06,13.13-25,28.38-58.78,42.93-95.2C341.37,242.57,362.3,170.2,362.3,139.24Z"/></g><g id="Layer_2" data-name="Layer 2"><path class="cls-2" d="M176.76,199.53H159.25a2.84,2.84,0,0,0-2.1.82,2.88,2.88,0,0,0-.82,2.1V220a2.88,2.88,0,0,0,.82,2.1,2.84,2.84,0,0,0,2.1.82h17.51a2.81,2.81,0,0,0,2.92-2.92V202.45a2.81,2.81,0,0,0-2.92-2.92Z"/><path class="cls-2" d="M246.81,164.51H229.3a2.84,2.84,0,0,0-2.1.82,2.8,2.8,0,0,0-.82,2.09V220a2.81,2.81,0,0,0,2.92,2.92h17.51a2.81,2.81,0,0,0,2.92-2.92V167.43a2.81,2.81,0,0,0-2.92-2.92Z"/><path class="cls-2" d="M211.79,187.86H194.28a2.81,2.81,0,0,0-2.92,2.91V220a2.81,2.81,0,0,0,2.92,2.92h17.51a2.81,2.81,0,0,0,2.92-2.92V190.77a2.81,2.81,0,0,0-2.92-2.91Z"/><path class="cls-2" d="M281.83,129.49H264.32a2.81,2.81,0,0,0-2.92,2.91V220a2.88,2.88,0,0,0,.82,2.1,2.84,2.84,0,0,0,2.1.82h17.51a2.81,2.81,0,0,0,2.92-2.92V132.4a2.8,2.8,0,0,0-.82-2.09A2.84,2.84,0,0,0,281.83,129.49Z"/><path class="cls-2" d="M319,83.61a2.83,2.83,0,0,0-2.1-.82H299.34a2.8,2.8,0,0,0-2.09.82,2.85,2.85,0,0,0-.83,2.1V220a2.85,2.85,0,0,0,.83,2.1,2.8,2.8,0,0,0,2.09.82h17.51a2.81,2.81,0,0,0,2.92-2.92V85.71A2.84,2.84,0,0,0,319,83.61Z"/><line class="cls-3" x1="340" y1="101" x2="161.94" y2="238.93"/></g></svg>